# xmcd CD database file
#
# Track frame offsets:
#	150
#	22737
#	41875
#	64500
#
# Disc length: 1111 seconds
#
# Revision: 0
# Processed by: cddbd v1.5PL3 Copyright (c) Steve Scherf et al.
# Submitted via: CDex 1.50beta8
#
DISCID=28045504
DTITLE=speena - スピーナ
DYEAR=1900
DGENRE=JPop
TTITLE0=スピーナ
TTITLE1=LOVE POTION NO.69
TTITLE2=スピーナ(Instrumental)
TTITLE3=LOVE POTION NO.69(Instrumental)
EXTD=
EXTT0=
EXTT1=
EXTT2=
EXTT3=
PLAYORDER=
